<?xml version="1.0" encoding="UTF-8" standalone="no"?>
<!-- Generator: Adobe Illustrator 13.0.2, SVG Export Plug-In  -->
<svg
   xmlns:dc="http://purl.org/dc/elements/1.1/"
   xmlns:cc="http://web.resource.org/cc/"
   xmlns:rdf="http://www.w3.org/1999/02/22-rdf-syntax-ns#"
   xmlns:svg="http://www.w3.org/2000/svg"
   xmlns="http://www.w3.org/2000/svg"
   xmlns:sodipodi="http://sodipodi.sourceforge.net/DTD/sodipodi-0.dtd"
   xmlns:inkscape="http://www.inkscape.org/namespaces/inkscape"
   version="1.1"
   x="0px"
   y="0px"
   width="36px"
   height="36px"
   viewBox="-1.5 -1 36 36"
   enable-background="new -1.5 -1 36 36"
   xml:space="preserve"
   id="svg2236"
   sodipodi:version="0.32"
   inkscape:version="0.44.1"
   sodipodi:docname="closebutton_normal.svg"
   sodipodi:docbase="/basyskom/users/ajae/embeddedstories/skins/scrolldial/Beryl"><metadata
   id="metadata2269"><rdf:RDF><cc:Work
       rdf:about=""><dc:format>image/svg+xml</dc:format><dc:type
         rdf:resource="http://purl.org/dc/dcmitype/StillImage" /></cc:Work></rdf:RDF></metadata><sodipodi:namedview
   inkscape:window-height="641"
   inkscape:window-width="937"
   inkscape:pageshadow="2"
   inkscape:pageopacity="0.0"
   guidetolerance="10.0"
   gridtolerance="10.0"
   objecttolerance="10.0"
   borderopacity="1.0"
   bordercolor="#666666"
   pagecolor="#ffffff"
   id="base"
   inkscape:object-points="true"
   inkscape:zoom="12.083333"
   inkscape:cx="18"
   inkscape:cy="18.330612"
   inkscape:window-x="313"
   inkscape:window-y="94"
   inkscape:current-layer="svg2236" />
<defs
   id="defs2238">
</defs>
<path
   id="path6_1_"
   d="M 34.5,17 C 34.5,26.943714 26.446286,35 16.5,35 C 6.5537142,35 -1.5,26.943714 -1.5,17 C -1.5,7.0549989 6.5537142,-1 16.5,-1 C 26.446286,-1 34.5,7.0549989 34.5,17 z "
   style="fill:#b3e600" />

<linearGradient
   id="path15_2_"
   gradientUnits="userSpaceOnUse"
   x1="-204.0132"
   y1="805.9141"
   x2="-177.7072"
   y2="833.3323"
   gradientTransform="matrix(1.285714,0,0,1.285714,261.4286,-1037.286)">
	<stop
   offset="0"
   style="stop-color:#FFFFFF"
   id="stop2243" />
	<stop
   offset="1"
   style="stop-color:#000000"
   id="stop2245" />
</linearGradient>
<path
   id="path15_1_"
   d="M 16.5,29.857143 C 9.4092858,29.857143 3.6441428,24.089428 3.6441428,16.998714 C 3.6441428,9.9079989 9.4092858,4.1428564 16.5,4.1428564 C 23.592,4.1428564 29.355858,9.9079989 29.355858,16.998714 C 29.355858,24.089428 23.592,29.857143 16.5,29.857143 L 16.5,29.857143 z "
   style="fill:url(#path15_2_)" />
<linearGradient
   id="circle22_2_"
   gradientUnits="userSpaceOnUse"
   x1="-206.7256"
   y1="803.0879"
   x2="-175.1429"
   y2="836.0061"
   gradientTransform="translate(206.5,-806)">
	<stop
   offset="0"
   style="stop-color:#FFFFFF"
   id="stop2249" />
	<stop
   offset="1"
   style="stop-color:#000000"
   id="stop2251" />
</linearGradient>
<circle
   id="circle22_1_"
   cx="16"
   cy="14"
   r="12"
   style="fill:url(#circle22_2_)"
   sodipodi:cx="16"
   sodipodi:cy="14"
   sodipodi:rx="12"
   sodipodi:ry="12"
   transform="matrix(1.285714,0,0,1.285714,-4.071428,-0.999999)" />
<radialGradient
   id="path29_2_"
   cx="-196.7129"
   cy="810.4258"
   r="21.3801"
   gradientTransform="matrix(1.285714,0,0,1.285714,261.4286,-1037.286)"
   gradientUnits="userSpaceOnUse">
	<stop
   offset="0"
   style="stop-color:#FFFFFF"
   id="stop2255" />
	<stop
   offset="1"
   style="stop-color:#616161"
   id="stop2257" />
</radialGradient>
<path
   id="path29_1_"
   d="M 16.498714,31.142858 C 8.6995714,31.142858 2.3571428,24.796572 2.3571428,16.998714 C 2.3571428,9.1995706 8.6995714,2.8571428 16.498714,2.8571428 C 24.296572,2.8571428 30.642858,9.1995706 30.642858,16.998714 C 30.642858,24.796572 24.296572,31.142858 16.498714,31.142858 L 16.498714,31.142858 z "
   style="fill:url(#path29_2_)" />
<polygon
   points="20.965,8 14.602,14.364 11.064,10.829 7.529,14.364 14.602,21.436 24.5,11.536 20.965,8 "
   id="polygon2260"
   transform="matrix(1.285714,0,0,1.285714,-4.071428,-0.999999)"
   style="fill:#666" />
<linearGradient
   id="path33_2_"
   gradientUnits="userSpaceOnUse"
   x1="-88.3105"
   y1="-91.4121"
   x2="-86.1419"
   y2="-104.077"
   gradientTransform="matrix(1.285714,0,0,-1.285714,127.7142,-114.1429)">
	<stop
   offset="0"
   style="stop-color:#FFFFFF"
   id="stop2263" />
	<stop
   offset="1"
   style="stop-color:#FFFFFF"
   id="stop2265" />
</linearGradient>
<path
   id="path33_1_"
   enable-background="new    "
   d="M 16.5,13.31 C 22.022142,13.31 26.988858,15.688572 30.421714,19.481429 C 30.563142,18.672714 30.642858,17.849858 30.642858,17 C 30.642858,9.1918565 24.314572,2.8571428 16.5,2.8571428 C 8.6854286,2.8571428 2.3571428,9.1918565 2.3571428,17 C 2.3571428,17.849858 2.4368572,18.672714 2.5782858,19.481429 C 6.0162858,15.688572 10.977858,13.31 16.5,13.31 z "
   style="opacity:0.8;fill:url(#path33_2_)" />
</svg>