<?xml version="1.0" encoding="UTF-8" standalone="no"?>
<!-- Generator: Adobe Illustrator 13.0.2, SVG Export Plug-In  -->
<svg
   xmlns:dc="http://purl.org/dc/elements/1.1/"
   xmlns:cc="http://web.resource.org/cc/"
   xmlns:rdf="http://www.w3.org/1999/02/22-rdf-syntax-ns#"
   xmlns:svg="http://www.w3.org/2000/svg"
   xmlns="http://www.w3.org/2000/svg"
   xmlns:sodipodi="http://sodipodi.sourceforge.net/DTD/sodipodi-0.dtd"
   xmlns:inkscape="http://www.inkscape.org/namespaces/inkscape"
   version="1.0"
   x="0px"
   y="0px"
   width="73"
   height="178"
   viewBox="0 0 73 178"
   enable-background="new 0 0 73 178"
   xml:space="preserve"
   id="svg2"
   sodipodi:version="0.32"
   inkscape:version="0.45.1"
   sodipodi:docname="popup_background.svg"
   sodipodi:docbase="/basyskom/users/dhau/projects/embeddedstories/skins/scrolldial/Beryl"
   inkscape:output_extension="org.inkscape.output.svg.inkscape"><metadata
   id="metadata11"><rdf:RDF><cc:Work
       rdf:about=""><dc:format>image/svg+xml</dc:format><dc:type
         rdf:resource="http://purl.org/dc/dcmitype/StillImage" /></cc:Work></rdf:RDF></metadata><sodipodi:namedview
   inkscape:window-height="959"
   inkscape:window-width="836"
   inkscape:pageshadow="2"
   inkscape:pageopacity="0.0"
   guidetolerance="10.0"
   gridtolerance="10.0"
   objecttolerance="10.0"
   borderopacity="1.0"
   bordercolor="#666666"
   pagecolor="#ffffff"
   id="base"
   height="178px"
   width="73px"
   inkscape:zoom="2"
   inkscape:cx="40.161165"
   inkscape:cy="111.55411"
   inkscape:window-x="0"
   inkscape:window-y="0"
   inkscape:current-layer="svg2" />
<defs
   id="defs4">
</defs>
<path
   d="M 65.868405,178 L 7.134637,178 C 3.2018166,178 2.4980018e-16,174.79571 0,170.80756 L 0,7.1878767 C 2.4391009e-16,3.2043911 3.2018166,0 7.134637,0 L 65.868405,0 C 69.801225,0 73,3.1997183 73,7.1878767 L 73,170.93391 C 73,174.94335 69.801225,178 65.868405,178 L 65.868405,178 z "
   id="path6"
   style="fill:#b3e600"
   sodipodi:nodetypes="cccccccccc" />
<path
   d="M 66.248002,176.44555 L 6.755093,176.44555 C 3.9021446,176.44555 1.5821985,173.78002 1.5821985,171.27661 L 1.5821985,6.9581351 C 1.5821985,4.4409427 3.9021446,1.5544489 6.755093,1.5544489 L 66.248002,1.5544489 C 69.097868,1.5544489 71.416788,4.3212088 71.416788,6.8384012 L 71.416788,171.51608 C 71.416788,174.03092 69.097868,176.44555 66.248002,176.44555 L 66.248002,176.44555 z "
   id="path8"
   style="fill:#818898;fill-opacity:1"
   sodipodi:nodetypes="cccccccccc" />
</svg>